<svg width="252" height="236" viewBox="0 0 252 236" fill="none" xmlns="http://www.w3.org/2000/svg">
<path d="M252 235.284C252 235.401 195.581 235.5 126.005 235.5C56.4301 235.5 0 235.401 0 235.284C0 235.168 56.4027 235.068 126.005 235.068C195.608 235.068 252 235.168 252 235.284Z" fill="#263238"/>
<path d="M65.1743 215.87C65.1743 215.87 62.3037 196.157 62.545 184.692C62.7863 173.228 62.5283 160.327 62.5283 160.327H63.8513C63.8513 160.327 62.9527 183.089 63.9345 196.821C64.9081 210.536 67.4792 215.878 67.4792 215.878H65.1827" fill="#263238"/>
<path d="M73.7282 138.147C73.462 137.474 73.1374 136.768 72.5217 136.386C71.6813 135.854 70.583 136.078 69.6427 136.402C65.6487 137.815 62.104 145.258 60.4814 149.171L65.7901 167.023C75.3674 158.151 77.0316 146.512 73.7199 138.139L73.7282 138.147Z" fill="#455A64"/>
<path d="M72.2056 137.109C72.2056 137.109 72.1889 137.192 72.1307 137.341C72.0641 137.516 71.9726 137.732 71.8727 137.989C71.6397 138.554 71.3152 139.368 70.9241 140.382C70.142 142.409 69.1435 145.241 68.2532 148.44C67.3628 151.638 66.7554 154.579 66.381 156.714C66.1896 157.785 66.0481 158.649 65.9566 159.256C65.9067 159.538 65.8734 159.762 65.8401 159.945C65.8151 160.103 65.7902 160.186 65.7819 160.186C65.7819 160.186 65.7819 160.103 65.7902 159.945C65.8068 159.762 65.8318 159.53 65.8651 159.247C65.9316 158.641 66.0481 157.769 66.2229 156.697C66.564 154.545 67.1465 151.588 68.0368 148.39C68.9271 145.191 69.9506 142.35 70.7744 140.332C71.1821 139.327 71.5316 138.512 71.7895 137.964C71.9143 137.707 72.0059 137.499 72.0891 137.333C72.1556 137.192 72.1972 137.117 72.2056 137.117V137.109Z" fill="#263238"/>
<path d="M63.4353 171.309C58.4594 168.568 55.5305 163.401 55.2559 157.735C55.0645 153.773 56.2877 149.885 57.669 146.163C57.7855 145.839 57.9269 145.49 58.2348 145.324C58.6508 145.092 59.175 145.299 59.5911 145.532C63.2023 147.584 65.399 151.505 66.5639 155.492C67.3378 158.142 67.7372 160.942 67.3794 163.683C67.0216 166.425 65.449 169.407 63.4436 171.309" fill="#455A64"/>
<path d="M63.4353 171.309C63.4353 171.309 63.4187 171.226 63.4187 171.069C63.4187 170.886 63.4187 170.662 63.402 170.387C63.402 169.789 63.3771 168.934 63.3271 167.87C63.2356 165.744 62.9527 162.819 62.4035 159.621C61.8543 156.423 61.1804 153.557 60.6894 151.488C60.4481 150.475 60.2484 149.644 60.0986 149.038C60.0404 148.764 59.9822 148.548 59.9489 148.373C59.9156 148.224 59.899 148.141 59.9073 148.132C59.9073 148.132 59.9405 148.207 59.9905 148.356C60.0404 148.531 60.107 148.747 60.1818 149.013C60.3483 149.586 60.5729 150.417 60.8392 151.447C61.3717 153.507 62.0624 156.373 62.6199 159.58C63.169 162.786 63.427 165.727 63.4852 167.862C63.5102 168.925 63.5185 169.789 63.4852 170.387C63.4769 170.662 63.4686 170.894 63.4603 171.077C63.4519 171.235 63.4436 171.318 63.4353 171.318V171.309Z" fill="#263238"/>
<g opacity="0.3">
<path d="M63.4353 171.309C58.4594 168.568 55.5305 163.401 55.2559 157.735C55.0645 153.773 56.2877 149.885 57.669 146.163C57.7855 145.839 57.9269 145.49 58.2348 145.324C58.6508 145.092 59.175 145.299 59.5911 145.532C63.2023 147.584 65.399 151.505 66.5639 155.492C67.3378 158.142 67.7372 160.942 67.3794 163.683C67.0216 166.425 65.449 169.407 63.4436 171.309" fill="black"/>
</g>
<path d="M69.0436 201.473C73.9362 202.545 77.9718 205.992 82.6981 207.67C85.8267 208.784 89.3548 209.174 91.851 211.351C91.2519 209.839 89.829 208.833 88.4561 207.978C84.5703 205.552 80.4098 203.575 76.083 202.08C73.8613 201.315 71.4483 200.676 69.185 201.307" fill="#455A64"/>
<path d="M61.9625 205.826C55.8301 205.727 49.3731 200.518 43.2656 200.202C49.656 198.142 58.8006 199.828 61.9625 205.826Z" fill="#455A64"/>
<path d="M64.3589 191.139C67.4709 190.017 70.8907 189.968 74.1608 190.474C77.4309 190.981 80.5928 192.028 83.7298 193.074C83.4136 190.948 81.6912 189.353 80.077 187.941C78.8621 186.877 77.6306 185.806 76.2327 184.991C74.8348 184.177 73.2372 183.621 71.623 183.696C69.6759 183.779 67.812 184.784 66.5389 186.254C65.2575 187.725 64.5752 189.212 64.3589 191.147" fill="#455A64"/>
<path d="M51.7778 184.377C47.917 181.087 42.0674 181.411 37 181.519C44.7966 185.241 53.209 190.35 59.9239 195.783C60.1319 192.202 56.6538 188.53 51.7778 184.377Z" fill="#455A64"/>
<g opacity="0.3">
<path d="M51.7778 184.377C47.917 181.087 42.0674 181.411 37 181.519C44.7966 185.241 53.209 190.35 59.9239 195.783C60.1319 192.202 56.6538 188.53 51.7778 184.377Z" fill="black"/>
</g>
<path d="M66.098 179.833C68.0368 178.537 70.0005 177.307 72.0308 176.385C74.061 175.463 75.9582 173.993 77.9219 172.938C80.4681 171.559 82.6731 169.648 85.0029 167.945C87.3411 166.242 89.9039 164.697 92.758 164.248C90.4281 163.766 87.9901 164.032 85.6936 164.655C83.397 165.278 81.217 166.259 79.0452 167.239C76.0331 168.593 72.971 169.98 70.508 172.182C68.0451 174.383 65.8234 176.551 66.0814 179.841" fill="#455A64"/>
<path d="M82.5899 205.826C82.5899 205.826 82.5233 205.801 82.3985 205.743C82.2571 205.668 82.074 205.577 81.866 205.469C81.4083 205.22 80.7427 204.863 79.9023 204.439C79.4862 204.223 79.0286 203.99 78.5376 203.758C78.0467 203.517 77.5142 203.276 76.9484 203.027C75.8167 202.545 74.5519 202.038 73.1707 201.714C71.7977 201.374 70.4248 201.307 69.2349 201.614C68.6358 201.756 68.07 201.905 67.5708 202.113C67.0632 202.321 66.6139 202.553 66.2228 202.802C65.4406 203.292 64.8915 203.816 64.5337 204.198C64.1759 204.58 64.0094 204.813 63.9928 204.796C63.9928 204.796 64.0261 204.73 64.101 204.613C64.1759 204.497 64.3007 204.339 64.4754 204.14C64.8166 203.741 65.3574 203.193 66.1479 202.669C66.539 202.412 66.9966 202.154 67.5042 201.938C68.0118 201.714 68.5942 201.565 69.1933 201.415C70.4082 201.083 71.831 201.158 73.2206 201.498C74.6185 201.83 75.8916 202.345 77.0232 202.844C77.5891 203.093 78.1216 203.342 78.6125 203.592C79.1118 203.832 79.5611 204.065 79.9688 204.298C80.7926 204.738 81.4499 205.12 81.8993 205.386C82.1073 205.511 82.2737 205.61 82.4151 205.702C82.5316 205.776 82.5899 205.818 82.5899 205.826Z" fill="#263238"/>
<path d="M57.3944 202.794C57.3944 202.794 57.5359 202.819 57.7772 202.91C58.0185 202.993 58.368 203.143 58.7757 203.342C59.5994 203.749 60.6895 204.439 61.7046 205.419C62.7197 206.399 63.4603 207.454 63.9013 208.26C64.126 208.667 64.2841 208.999 64.3756 209.24C64.4671 209.481 64.517 209.614 64.5004 209.623C64.4671 209.639 64.2341 209.116 63.7682 208.343C63.3022 207.562 62.5533 206.541 61.5548 205.585C60.5563 204.63 59.4996 203.924 58.7008 203.492C57.902 203.051 57.3778 202.844 57.3861 202.811L57.3944 202.794Z" fill="#263238"/>
<path d="M43.8231 184.069C43.8231 184.069 43.9146 184.086 44.081 184.144C44.2724 184.211 44.5137 184.302 44.8132 184.402C45.1378 184.518 45.5288 184.667 45.9698 184.825C46.4192 184.991 46.9101 185.241 47.4676 185.482C49.6726 186.478 52.6099 188.165 55.4473 190.557C56.8452 191.77 58.1099 193.008 59.1667 194.221C60.2234 195.434 61.1138 196.572 61.8127 197.56C62.5117 198.549 63.0442 199.371 63.4103 199.945C63.585 200.21 63.7182 200.435 63.8264 200.601C63.9179 200.75 63.9678 200.833 63.9595 200.833C63.9595 200.833 63.8929 200.767 63.7847 200.626C63.6766 200.485 63.5185 200.269 63.3271 199.994C62.9444 199.438 62.3952 198.624 61.6796 197.652C60.9723 196.671 60.0653 195.55 59.0086 194.354C57.9435 193.158 56.6871 191.936 55.2975 190.723C52.4767 188.348 49.5728 186.653 47.3927 185.615C46.8435 185.365 46.3609 185.108 45.9116 184.925C45.4706 184.751 45.0878 184.593 44.7716 184.468C44.4721 184.343 44.2391 184.244 44.0477 184.169C43.8813 184.094 43.7981 184.061 43.7981 184.053L43.8231 184.069Z" fill="#263238"/>
<path d="M73.5617 187.7C73.5617 187.7 73.387 187.691 73.0708 187.633C72.9044 187.6 72.713 187.567 72.505 187.534C72.2887 187.492 72.0307 187.492 71.7478 187.459C70.6411 187.376 69.0352 187.467 67.5375 188.29C66.7803 188.672 66.1395 189.195 65.6237 189.71C65.0911 190.225 64.6917 190.765 64.3922 191.23C63.7764 192.169 63.585 192.85 63.5518 192.834C63.5434 192.834 63.5767 192.659 63.6766 192.36C63.7931 192.061 63.9595 191.637 64.2674 191.147C64.5586 190.657 64.958 190.101 65.4905 189.569C66.0147 189.029 66.6638 188.489 67.4459 188.098C69.0019 187.251 70.6578 187.185 71.7728 187.309C72.0557 187.351 72.3136 187.359 72.53 187.417C72.738 187.467 72.921 187.517 73.0958 187.558C73.4036 187.642 73.5701 187.691 73.5617 187.708V187.7Z" fill="#263238"/>
<path d="M79.7275 168.61C79.7275 168.61 79.6527 168.668 79.4946 168.751C79.3198 168.851 79.0952 168.967 78.8122 169.125C78.2131 169.449 77.3644 169.914 76.3243 170.529C75.2925 171.152 74.0694 171.908 72.7713 172.838C71.4816 173.768 70.0837 174.848 68.8023 176.153C68.1699 176.809 67.5874 177.498 67.1797 178.246C66.7803 179.019 66.3976 179.758 66.0398 180.472C65.3325 181.901 64.75 183.214 64.334 184.344C63.9179 185.473 63.66 186.412 63.5019 187.068C63.3438 187.725 63.2856 188.09 63.2689 188.09C63.2689 188.09 63.2689 187.999 63.2939 187.816C63.3188 187.642 63.3521 187.376 63.4187 187.052C63.5435 186.387 63.7848 185.432 64.1842 184.294C64.5836 183.147 65.1494 181.826 65.8484 180.389C66.1979 179.667 66.5806 178.919 66.98 178.146C67.4044 177.366 67.9952 176.668 68.6359 175.995C69.9339 174.666 71.3401 173.586 72.6465 172.664C73.9529 171.741 75.1927 170.994 76.2411 170.387C77.2979 169.789 78.1632 169.341 78.7707 169.042C79.0619 168.9 79.2949 168.792 79.4779 168.709C79.636 168.635 79.7275 168.601 79.7275 168.61Z" fill="#263238"/>
<path d="M62.5284 187.143C62.5284 187.143 62.4701 186.96 62.4036 186.628C62.3287 186.254 62.2455 185.781 62.1373 185.216C61.9043 184.028 61.5465 182.383 60.9807 180.622C60.4149 178.861 59.7326 177.324 59.2333 176.219C58.992 175.696 58.7923 175.255 58.6342 174.907C58.4928 174.599 58.4262 174.425 58.4345 174.416C58.4512 174.416 58.5427 174.574 58.7091 174.873C58.8755 175.172 59.1002 175.613 59.3665 176.153C59.9073 177.241 60.6146 178.778 61.1887 180.555C61.7629 182.333 62.0957 183.986 62.2954 185.191C62.3953 185.789 62.4618 186.279 62.4951 186.62C62.5367 186.96 62.545 187.143 62.5284 187.151V187.143Z" fill="#263238"/>
<path d="M62.0874 173.22C61.9376 170.911 61.1804 168.659 60.0904 166.608C57.1115 160.992 51.5199 156.822 45.2793 155.576C49.8474 162.379 54.4239 169.183 58.992 175.987L60.7644 179.625C61.9709 177.648 62.2372 175.53 62.0874 173.212V173.22Z" fill="#455A64"/>
<path d="M81.7578 213.436H49.8723V219.076H81.7578V213.436Z" fill="#2F52E0"/>
<path d="M52.2521 217.955L54.9647 235.466H76.1412L79.378 217.955H52.2521Z" fill="#2F52E0"/>
<path d="M81.7412 219.085C81.7412 219.143 74.552 219.193 65.6736 219.193C56.7953 219.193 49.6061 219.143 49.6061 219.085C49.6061 219.026 56.7953 218.976 65.6736 218.976C74.552 218.976 81.7412 219.026 81.7412 219.085Z" fill="#263238"/>
<path d="M236.415 152.693C236.431 152.502 236.456 152.303 236.465 152.112C236.631 148.373 235.108 144.793 233.644 141.345C229.717 132.108 225.922 122.305 227.029 112.336C228.485 99.1529 238.195 88.2454 241.665 75.4938C242.073 73.9902 243.454 72.9601 245.019 72.9601C247.365 72.9601 249.062 75.228 248.347 77.446C244.486 89.3752 235.674 99.8258 234.293 112.328C233.186 122.297 236.989 132.099 240.908 141.337C242.373 144.785 243.895 148.365 243.729 152.103C243.562 155.842 241.158 159.771 237.447 160.369H182.263C180.341 160.369 178.785 158.816 178.785 156.905V156.157C178.785 154.247 180.341 152.693 182.263 152.693H236.423H236.415Z" fill="#455A64"/>
<path d="M247.515 235.284H167.435C166.32 235.284 165.272 234.736 164.581 233.78C163.782 232.684 163.566 231.238 163.999 229.917L186.789 160.178L187.979 160.568L165.189 230.308C164.881 231.247 165.03 232.277 165.596 233.049C166.054 233.681 166.728 234.038 167.435 234.038H247.515C248.222 234.038 248.863 233.706 249.321 233.091C249.878 232.351 250.061 231.355 249.803 230.424L230.216 160.535L231.422 160.195L251.01 230.084C251.376 231.388 251.118 232.792 250.319 233.838C249.628 234.752 248.605 235.276 247.515 235.276V235.284Z" fill="#E0E0E0"/>
<path d="M135.2 108.698C135.2 108.698 138.121 101.62 141 100.125C143.879 98.6295 147.548 97.6742 147.548 97.6742H160.371L160.496 105.965C160.496 105.965 158.64 107.817 156.102 107.468C153.564 107.12 147.224 105.558 147.224 105.558L144.095 105.732L141.208 109.421C141.208 109.421 138.87 110.127 139.693 107.917C140.517 105.707 140.883 104.735 140.883 104.735C140.883 104.735 138.113 109.039 137.056 109.238C135.999 109.437 135.192 108.706 135.192 108.706L135.2 108.698Z" fill="#EB996E"/>
<path d="M188.204 82.015L177.994 96.669L160.362 97.6742L160.121 105.716L173.401 108.324C180.299 109.678 187.43 107.568 192.464 102.675L194.411 84.9475L188.196 82.015H188.204Z" fill="#FFBE9D"/>
<path d="M180.291 203.575L192.157 215.155C192.157 215.155 183.594 231.662 185.558 234.03L210.321 210.761L192.623 191.92L180.283 203.567L180.291 203.575Z" fill="#263238"/>
<path d="M198.855 206.956C199.454 206.632 200.261 206.823 200.585 207.388C200.91 207.945 200.669 208.784 200.078 209.116C199.487 209.457 198.505 209.249 198.247 208.651C197.989 208.053 198.331 207.089 198.98 206.898" fill="#E0E0E0"/>
<path d="M210.321 210.769L208.457 208.942L185.408 231.928C185.408 231.928 184.734 233.415 185.55 234.03L210.313 210.769H210.321Z" fill="#455A64"/>
<path d="M191.641 215.414C191.749 215.522 192.406 215.006 193.347 214.815C194.287 214.599 195.061 214.807 195.127 214.657C195.219 214.533 194.395 214.017 193.255 214.275C192.115 214.516 191.516 215.339 191.641 215.422V215.414Z" fill="white"/>
<path d="M190.001 218.869C190.076 219.002 190.784 218.711 191.657 218.803C192.531 218.869 193.13 219.293 193.247 219.177C193.38 219.085 192.831 218.346 191.749 218.246C190.667 218.138 189.91 218.761 190.01 218.869H190.001Z" fill="white"/>
<path d="M191.308 223.181C191.441 223.098 191.067 222.375 190.168 222.042C189.269 221.701 188.462 221.992 188.504 222.134C188.52 222.292 189.211 222.283 189.943 222.566C190.684 222.832 191.175 223.281 191.308 223.181Z" fill="white"/>
<path d="M189.244 212.464C189.394 212.522 189.802 211.841 190.526 211.243C191.241 210.628 191.973 210.346 191.948 210.188C191.948 210.038 191.025 210.105 190.176 210.819C189.327 211.525 189.103 212.422 189.244 212.456V212.464Z" fill="white"/>
<path d="M181.681 121.018C179.509 121.018 126.663 136.386 120.947 141.578C115.23 146.77 110.953 211.06 110.953 211.06L133.112 218.645C133.112 218.645 137.78 187.251 140.609 177.108C142.855 169.05 142.34 161.524 142.34 161.524L186.215 142.45L181.681 121.018Z" fill="#263238"/>
<path d="M183.02 124.424C182.038 124.856 143.637 141.221 140.035 152.187C137.097 161.125 140.509 168.992 144.619 175.14C149.254 182.084 183.261 213.062 183.261 213.062L202.457 199.364L169.549 165.437C169.549 165.437 186.814 154.795 187.405 154.795C187.996 154.795 205.944 153.607 211.635 152.967C216.944 152.369 219.856 144.76 219.856 144.76L224.591 122.953L188.986 114.746L183.02 124.424Z" fill="#263238"/>
<path d="M183.02 124.424C183.02 124.424 183.145 124.208 183.395 123.784C183.652 123.36 184.027 122.737 184.526 121.923C185.525 120.287 187.006 117.861 188.936 114.712L188.961 114.679H189.003C196.941 116.507 209.181 119.306 224.624 122.837L224.732 122.862L224.707 122.97C223.285 129.524 221.695 136.893 219.99 144.776V144.793C219.174 146.745 218.084 148.623 216.611 150.259C215.871 151.073 215.005 151.796 214.007 152.328C213.757 152.469 213.508 152.594 213.233 152.685C212.967 152.768 212.709 152.909 212.418 152.942C212.135 152.992 211.852 153.059 211.577 153.1L210.737 153.192C206.244 153.632 201.592 153.964 196.808 154.313C194.42 154.479 191.99 154.637 189.535 154.812C188.92 154.845 188.304 154.886 187.688 154.92H187.447C187.397 154.92 187.405 154.944 187.38 154.944C187.364 154.944 187.322 154.969 187.289 154.986C187.156 155.044 187.014 155.119 186.881 155.185L186.066 155.634C184.984 156.249 183.91 156.888 182.829 157.528C178.502 160.112 174.108 162.795 169.64 165.545L169.673 165.304C177.869 173.752 186.498 182.649 195.368 191.795C197.79 194.296 200.194 196.772 202.582 199.231L202.716 199.363L202.566 199.471C196.017 204.14 189.61 208.717 183.37 213.17L183.261 213.245L183.17 213.162C176.297 206.873 169.698 200.717 163.433 194.736C160.304 191.746 157.25 188.797 154.321 185.872C151.393 182.948 148.547 180.074 145.984 177.083C145.651 176.726 145.368 176.311 145.069 175.929C144.769 175.538 144.47 175.156 144.212 174.741C143.679 173.927 143.172 173.104 142.706 172.273C141.765 170.604 140.95 168.892 140.318 167.148C139.685 165.403 139.228 163.617 138.995 161.831C138.77 160.045 138.762 158.267 138.961 156.539C139.153 154.812 139.552 153.142 140.159 151.58C140.833 150.027 141.898 148.747 142.989 147.576C145.227 145.275 147.681 143.414 150.07 141.753C154.871 138.446 159.464 135.879 163.508 133.719C167.56 131.56 171.096 129.84 173.992 128.461C176.888 127.09 179.151 126.077 180.682 125.404C181.447 125.072 182.03 124.822 182.429 124.648C182.82 124.482 183.028 124.407 183.028 124.407C183.028 124.407 182.829 124.507 182.438 124.681C182.038 124.856 181.464 125.121 180.699 125.462C179.176 126.152 176.921 127.182 174.034 128.569C171.146 129.956 167.618 131.692 163.583 133.869C159.547 136.045 154.971 138.621 150.186 141.935C147.806 143.597 145.36 145.458 143.147 147.742C142.073 148.897 141.016 150.168 140.367 151.68C139.777 153.208 139.377 154.87 139.194 156.573C139.003 158.276 139.011 160.037 139.236 161.806C139.469 163.567 139.926 165.337 140.551 167.065C141.183 168.793 141.99 170.496 142.922 172.149C143.388 172.98 143.887 173.794 144.42 174.599C144.669 175.015 144.969 175.389 145.268 175.779C145.568 176.161 145.843 176.56 146.175 176.926C148.73 179.9 151.576 182.774 154.505 185.69C157.433 188.614 160.479 191.555 163.616 194.545C169.881 200.518 176.488 206.665 183.361 212.954H183.162C189.402 208.485 195.809 203.907 202.349 199.239L202.324 199.48C199.945 197.021 197.54 194.545 195.11 192.045C186.24 182.898 177.612 174.001 169.416 165.553L169.274 165.412L169.44 165.312C173.909 162.562 178.31 159.879 182.637 157.295C183.719 156.656 184.801 156.016 185.882 155.401L186.706 154.953C186.848 154.878 186.981 154.803 187.131 154.737C187.172 154.72 187.197 154.704 187.255 154.687C187.305 154.67 187.389 154.654 187.414 154.654H187.638C188.254 154.604 188.87 154.571 189.485 154.537C191.94 154.371 194.361 154.205 196.758 154.047C201.534 153.707 206.194 153.374 210.679 152.942C211.81 152.868 212.884 152.643 213.84 152.12C214.797 151.605 215.646 150.907 216.37 150.11C217.81 148.506 218.908 146.646 219.707 144.735V144.751C221.421 136.868 223.027 129.499 224.458 122.953L224.541 123.086C209.106 119.506 196.883 116.673 188.945 114.829L189.011 114.804C187.056 117.944 185.558 120.361 184.543 121.998C184.035 122.804 183.652 123.418 183.395 123.834C183.137 124.249 182.995 124.449 182.995 124.449L183.02 124.424Z" fill="#455A64"/>
<path d="M186.507 19.5693C184.776 19.9182 182.87 18.7967 182.355 17.1103C181.83 15.4323 182.762 13.4219 184.385 12.7324C183.203 11.7189 182.771 9.91625 183.361 8.47909C183.952 7.03363 185.525 6.06168 187.089 6.16968C187.023 4.63283 187.805 3.08768 189.094 2.23203C190.376 1.38469 192.115 1.26008 193.505 1.92466C195.069 0.321363 197.806 0.030606 199.679 1.26008C201.143 0.853025 202.841 1.5093 203.656 2.78861C204.471 4.06793 204.347 5.87892 203.356 7.03363" fill="#263238"/>
<path d="M200.752 4.74087L199.962 4.80733C192.032 5.50514 185.966 12.1676 186.033 20.1176C186.091 27.5111 186.249 35.6771 186.648 39.6065C187.472 47.7476 195.751 48.2959 195.751 48.2959L195.926 58.1483L215.688 55.789L214.298 20.1093C214.282 11.5777 209.289 4.48335 200.752 4.73257V4.74087Z" fill="#FFBE9D"/>
<path d="M195.735 48.2959C195.735 48.2959 200.918 48.1464 206.102 44.217C206.102 44.217 203.997 50.4558 195.785 50.4392L195.735 48.2959Z" fill="#EB996E"/>
<path d="M188.978 27.6772C189.011 28.292 189.56 28.7738 190.21 28.7489C190.85 28.7239 191.349 28.2089 191.316 27.5941C191.283 26.9794 190.734 26.4976 190.093 26.5142C189.444 26.5391 188.953 27.0542 188.986 27.6689L188.978 27.6772Z" fill="#263238"/>
<path d="M188.146 23.9482C188.304 24.0895 189.128 23.358 190.384 23.2499C191.641 23.1252 192.614 23.6905 192.739 23.5242C192.797 23.4494 192.631 23.1917 192.198 22.934C191.774 22.6763 191.083 22.4519 190.301 22.5267C189.519 22.6015 188.887 22.9423 188.537 23.2748C188.179 23.6073 188.071 23.89 188.146 23.9565V23.9482Z" fill="#263238"/>
<path d="M200.261 27.0293C200.294 27.644 200.844 28.1258 201.493 28.1009C202.133 28.076 202.633 27.5609 202.599 26.9462C202.566 26.3315 202.017 25.8496 201.368 25.8663C200.719 25.8912 200.228 26.4062 200.261 27.021V27.0293Z" fill="#263238"/>
<path d="M200.502 23.0926C200.661 23.2339 201.484 22.5024 202.741 22.3943C203.989 22.2696 204.971 22.8349 205.096 22.6686C205.154 22.5938 204.987 22.3361 204.555 22.0784C204.13 21.8207 203.44 21.5963 202.658 21.6711C201.875 21.7459 201.243 22.0867 200.893 22.4192C200.536 22.7518 200.428 23.0344 200.502 23.1009V23.0926Z" fill="#263238"/>
<path d="M196.766 32.7862C196.766 32.7114 195.976 32.645 194.694 32.5951C194.37 32.5951 194.062 32.5536 193.987 32.3376C193.887 32.1133 193.987 31.7561 194.12 31.374C194.353 30.5765 194.595 29.7374 194.853 28.8569C195.859 25.2681 196.558 22.3357 196.417 22.2941C196.275 22.2526 195.335 25.1269 194.328 28.7157C194.087 29.5962 193.854 30.4436 193.638 31.2494C193.546 31.6232 193.38 32.0552 193.579 32.5204C193.688 32.753 193.937 32.9025 194.145 32.944C194.353 32.9856 194.536 32.9773 194.694 32.969C195.976 32.9274 196.766 32.861 196.758 32.7862H196.766Z" fill="#263238"/>
<path d="M198.98 18.373C199.171 18.6721 200.22 18.2401 201.543 18.074C202.857 17.8829 203.997 18.0324 204.089 17.6918C204.13 17.534 203.864 17.2682 203.365 17.0522C202.866 16.8362 202.133 16.7033 201.343 16.8113C200.552 16.9193 199.887 17.2349 199.479 17.5672C199.063 17.8995 198.896 18.2235 198.988 18.3647L198.98 18.373Z" fill="#263238"/>
<path d="M187.622 18.7884C187.913 19.0459 188.92 18.6638 190.168 18.5392C191.408 18.3813 192.481 18.5309 192.698 18.2069C192.789 18.0491 192.598 17.7832 192.115 17.5506C191.641 17.3263 190.859 17.1685 190.002 17.2682C189.145 17.3679 188.429 17.6918 188.021 18.0158C187.605 18.3481 187.489 18.6555 187.622 18.7801V18.7884Z" fill="#263238"/>
<path d="M186.49 16.3046C186.49 16.3046 188.196 11.0046 190.551 9.60063C193.405 7.89764 194.986 11.0544 197.756 10.0077C200.527 8.96096 203.257 7.32443 206.36 9.26833C209.755 11.3867 208.415 13.206 208.931 16.8113C211.028 31.4072 214.074 35.3199 214.232 28.3418C214.248 27.5775 216.295 26.7883 216.329 23.5651C216.362 19.3866 216.079 14.3358 214.889 11.4698C213.891 9.06065 212.318 7.46565 209.614 5.8042C205.337 3.17911 199.828 3.59447 196.117 4.30059C192.414 5.00671 185.583 9.94122 186.49 16.3046Z" fill="#263238"/>
<path d="M213.691 28.1674C213.633 26.9047 214.631 25.8164 215.896 25.8248C217.435 25.8331 219.199 26.5475 219.382 29.6959C219.699 35.2867 214.015 34.4477 213.99 34.2899C213.974 34.1819 213.799 30.51 213.691 28.1674Z" fill="#FFBE9D"/>
<path d="M215.089 32.1133C215.089 32.1133 215.189 32.1798 215.363 32.2462C215.53 32.3127 215.804 32.3459 216.096 32.2213C216.678 31.9721 217.119 31.0085 217.094 29.995C217.078 29.4882 216.944 29.0064 216.745 28.616C216.553 28.2172 216.27 27.9431 215.971 27.9098C215.671 27.86 215.472 28.0511 215.413 28.2089C215.347 28.3667 215.388 28.483 215.363 28.4914C215.347 28.508 215.239 28.4083 215.272 28.1674C215.289 28.0511 215.347 27.9182 215.472 27.8019C215.596 27.6855 215.796 27.6191 216.004 27.6274C216.437 27.6274 216.845 28.0095 217.069 28.4332C217.319 28.8652 217.477 29.3968 217.494 29.97C217.519 31.0998 217.003 32.1881 216.204 32.4622C215.813 32.5868 215.48 32.4872 215.305 32.3625C215.122 32.2379 215.089 32.1133 215.106 32.0967L215.089 32.1133Z" fill="#EB996E"/>
<path d="M212.626 17.3762C211.944 17.9328 211.22 18.5143 210.354 18.6721C209.489 18.8382 208.449 18.4229 208.224 17.5755C208.124 17.1934 208.183 16.7365 207.9 16.4541C207.567 16.1218 207.009 16.2879 206.543 16.3793C204.937 16.695 202.882 15.0751 202.325 13.5299C201.967 14.1862 201.077 14.452 200.411 14.1031C199.745 13.7542 199.504 13.5465 198.963 13.0315C198.422 12.5164 197.69 12.0761 196.958 12.2423C196.55 12.3337 196.184 12.6161 195.768 12.6161C195.027 12.6161 194.595 11.7937 194.42 11.0709C194.245 10.3565 194.087 9.51749 193.43 9.17689C192.822 8.86122 192.098 9.13536 191.433 9.30151C190.767 9.45935 189.885 9.37627 189.652 8.73661C189.527 8.39601 189.652 8.02219 189.81 7.70652C190.559 6.26105 192.398 5.48847 193.954 5.96199C194.337 4.06793 195.934 2.48955 197.831 2.11572C199.729 1.74189 201.809 2.61416 202.874 4.21746C203.956 3.04613 205.636 2.44801 207.217 2.664C208.798 2.87999 210.254 3.9101 210.987 5.33064C212.31 4.85713 213.907 5.23926 214.864 6.27767C215.821 7.30777 216.087 8.92767 215.513 10.2153C216.57 10.6971 217.518 11.6192 217.635 12.7739C217.76 13.9286 216.736 15.1747 215.588 14.9671C216.121 15.8227 215.863 17.0771 215.031 17.6586C214.207 18.2401 212.934 18.0574 212.31 17.2599" fill="#263238"/>
<path d="M193.688 7.63169C193.688 7.63169 193.688 7.66493 193.696 7.73139C193.713 7.79785 193.721 7.89753 193.754 8.02213C193.829 8.27135 193.962 8.64518 194.254 9.06054C194.545 9.4676 194.977 9.92449 195.61 10.2651C196.226 10.614 197.058 10.8466 197.956 10.7137L197.848 10.5974C197.715 11.0875 197.815 11.6607 198.098 12.1259C198.364 12.6077 198.763 13.0148 199.171 13.4136C199.379 13.6046 199.571 13.8289 199.853 13.9951C200.128 14.1529 200.444 14.236 200.769 14.2443C201.409 14.2692 202.1 14.0117 202.508 13.4385L202.291 13.3969C202.533 14.4935 203.265 15.5485 204.322 16.13C204.888 16.4623 205.562 16.6451 206.211 16.5703C206.86 16.5039 207.442 16.2629 207.983 16.0137L207.825 15.9639C208.183 16.6285 208.699 17.1767 209.298 17.5672C209.888 17.9576 210.637 18.1487 211.286 17.9244C212.576 17.5256 213.358 16.3543 213.441 15.3159L213.317 15.3824C213.999 15.6814 214.706 15.6565 215.264 15.4904C215.821 15.3325 216.254 15.0501 216.545 14.7759C216.845 14.5018 217.011 14.2277 217.111 14.0366C217.202 13.8455 217.236 13.7375 217.227 13.7375C217.194 13.7209 217.078 14.1778 216.487 14.7012C216.187 14.9504 215.771 15.2162 215.23 15.3574C214.698 15.4987 214.024 15.507 213.392 15.2245L213.283 15.1747V15.291C213.183 16.2712 212.426 17.3595 211.228 17.7167C210.637 17.9078 209.972 17.7416 209.422 17.3761C208.865 17.0106 208.374 16.4789 208.033 15.8559L207.983 15.7562L207.883 15.806C207.351 16.047 206.785 16.2796 206.186 16.3377C205.587 16.4042 204.979 16.2463 204.447 15.9307C203.44 15.3741 202.757 14.3938 202.524 13.3554L202.466 13.0979L202.308 13.3139C201.967 13.804 201.343 14.0449 200.769 14.02C200.478 14.0117 200.195 13.9452 199.962 13.804C199.729 13.6711 199.529 13.4468 199.321 13.2557C198.905 12.8653 198.522 12.4748 198.273 12.0262C198.006 11.586 197.915 11.0875 198.031 10.6472L198.065 10.506L197.923 10.5309C197.074 10.6638 196.284 10.4562 195.676 10.1322C195.061 9.81651 194.628 9.37622 194.337 8.99408C193.754 8.19659 193.721 7.60677 193.679 7.62339L193.688 7.63169Z" fill="#455A64"/>
<path d="M196.874 36.7985C196.891 36.5909 198.289 36.757 199.421 35.6771C200.561 34.6054 200.586 33.0935 200.777 33.1101C200.868 33.1018 201.01 33.4757 200.952 34.107C200.902 34.7217 200.594 35.6023 199.895 36.2586C199.196 36.9149 198.347 37.1308 197.765 37.1059C197.174 37.0893 196.849 36.8899 196.866 36.7985H196.874Z" fill="#263238"/>
<path d="M115.996 202.794L113.416 220.68C113.416 220.68 93.3464 223.778 92.531 227.026L128.985 233.822L134.21 206.142L115.996 202.794Z" fill="#263238"/>
<path d="M124.966 221.286C125.64 221.602 125.989 222.441 125.698 223.089C125.407 223.729 124.525 224.061 123.842 223.753C123.168 223.454 122.711 222.449 123.077 221.843C123.435 221.236 124.508 220.904 125.091 221.353" fill="#E0E0E0"/>
<path d="M128.985 233.822L129.392 231.006L94.2867 225.539C94.2867 225.539 92.5393 225.905 92.5227 227.018L128.976 233.813L128.985 233.822Z" fill="#455A64"/>
<path d="M112.859 220.389C112.834 220.555 113.708 220.804 114.49 221.502C115.289 222.192 115.605 222.997 115.78 222.964C115.946 222.964 115.871 221.909 114.914 221.07C113.966 220.223 112.851 220.223 112.867 220.389H112.859Z" fill="white"/>
<path d="M108.757 221.17C108.69 221.328 109.406 221.76 109.88 222.582C110.379 223.396 110.388 224.194 110.571 224.219C110.729 224.277 111.037 223.313 110.429 222.3C109.83 221.278 108.798 221.012 108.765 221.17H108.757Z" fill="white"/>
<path d="M105.794 225.099C105.952 225.166 106.352 224.368 106.061 223.363C105.778 222.349 105.004 221.834 104.904 221.959C104.779 222.075 105.229 222.673 105.453 223.504C105.695 224.327 105.62 225.049 105.794 225.099Z" fill="white"/>
<path d="M113.924 216.385C113.974 216.551 114.831 216.477 115.821 216.726C116.82 216.959 117.544 217.424 117.668 217.3C117.793 217.2 117.144 216.427 115.971 216.152C114.798 215.861 113.866 216.244 113.924 216.393V216.385Z" fill="white"/>
<path d="M195.027 59.4276L195.776 56.0465L215.688 46.1775L217.427 48.8857C217.427 48.8857 224.882 54.9416 227.728 60.1918C230.582 65.442 227.196 108.474 226.721 114.754C225.764 127.406 221.03 143.971 221.03 143.971C221.03 143.971 214.639 139.526 195.843 131.825C177.046 124.116 176.039 120.627 176.039 120.627L187.114 106.605L195.027 59.4359V59.4276Z" fill="#2F52E0"/>
<path d="M195.327 60.6072C195.219 61.2302 186.216 82.8125 186.216 82.8125C186.216 82.8125 190.892 85.421 191.541 85.5456C192.19 85.6785 195.327 60.6072 195.327 60.6072Z" fill="#2F52E0"/>
<path d="M194.42 64.146C194.511 64.1626 193.713 69.6455 192.639 76.391C191.566 83.1448 190.626 88.6026 190.534 88.586C190.442 88.5694 191.241 83.0866 192.315 76.3411C193.388 69.5956 194.328 64.1294 194.42 64.146Z" fill="#263238"/>
<path d="M131.256 107.319C131.256 107.319 136.623 99.4186 139.818 98.0313C143.013 96.644 147.016 95.8964 147.016 95.8964L160.504 97.699L160.263 105.74C160.263 105.74 158.141 107.585 155.445 107.02C152.749 106.455 146.084 104.312 146.084 104.312L142.722 104.262L139.361 108C139.361 108 136.798 108.582 137.846 106.28C138.895 103.971 139.361 102.958 139.361 102.958C139.361 102.958 136.074 107.36 134.926 107.493C133.777 107.626 131.256 107.335 131.256 107.335V107.319Z" fill="#FFBE9D"/>
<path d="M201.734 75.6682L192.381 97.3668L160.362 97.6742L160.121 105.716C160.121 105.716 190.991 116.581 199.212 114.471C207.433 112.361 221.063 83.3358 221.063 83.3358L201.725 75.6682H201.734Z" fill="#FFBE9D"/>
<path d="M209.306 57.3675C208.432 58.1566 205.536 61.5543 202.449 68.9228C199.362 76.2997 195.027 84.9143 195.027 84.9143L217.102 93.6951C217.102 93.6951 222.136 82.1397 224.466 76.9975C226.247 73.0848 227.487 65.3839 225.872 61.654C224.25 57.924 216.994 50.406 209.306 57.3591V57.3675Z" fill="#2F52E0"/>
<path d="M209.306 57.3673C209.306 57.3673 209.372 57.3009 209.505 57.1763C209.647 57.06 209.847 56.8606 210.129 56.6363C210.695 56.1877 211.569 55.5563 212.85 55.033C214.123 54.5346 215.871 54.2023 217.801 54.6675C219.723 55.0995 221.729 56.2791 223.459 58.0402C224.325 58.9208 225.132 59.9509 225.764 61.1471C226.388 62.3683 226.655 63.7805 226.73 65.226C226.871 68.1252 226.455 71.2239 225.581 74.364C225.157 75.9424 224.433 77.4626 223.759 79.0161C223.077 80.5695 222.378 82.1562 221.662 83.7678C220.239 86.9993 218.766 90.3389 217.252 93.7698L217.186 93.911L217.036 93.8528C216.936 93.8113 216.828 93.7698 216.72 93.7282C208.906 90.613 201.501 87.6556 194.977 85.0554L194.827 84.9973L194.902 84.8561C196.966 80.7273 198.788 76.8894 200.352 73.4419C201.925 70.0027 203.115 66.9041 204.421 64.4784C205.686 62.0443 206.884 60.225 207.791 59.0537C208.241 58.4639 208.615 58.0402 208.881 57.7578C209.148 57.4836 209.306 57.359 209.306 57.359C209.306 57.359 209.272 57.4006 209.206 57.467C209.131 57.5501 209.031 57.6498 208.915 57.7827C208.665 58.0735 208.299 58.5054 207.858 59.0953C206.976 60.2832 205.811 62.1025 204.571 64.5448C203.298 66.9622 202.133 70.0774 200.569 73.525C199.021 76.9808 197.207 80.8354 195.16 84.9724L195.085 84.773C201.617 87.3649 209.023 90.3056 216.844 93.4126C216.953 93.4541 217.061 93.4956 217.161 93.5372L216.953 93.6202C218.467 90.1976 219.94 86.8498 221.371 83.6183C222.086 82.0067 222.785 80.42 223.468 78.8665C224.15 77.3048 224.866 75.8178 225.29 74.2643C226.164 71.1657 226.58 68.0837 226.455 65.226C226.388 63.7972 226.13 62.4182 225.54 61.2468C224.932 60.0755 224.133 59.062 223.293 58.1814C221.604 56.4369 219.64 55.2656 217.76 54.8253C215.871 54.3601 214.157 54.6592 212.892 55.1327C211.619 55.6311 210.737 56.2459 210.163 56.6695C209.871 56.8855 209.672 57.0683 209.522 57.1763C209.381 57.2926 209.297 57.3424 209.297 57.3424L209.306 57.3673Z" fill="#263238"/>
<path d="M145.401 99.9504C145.401 100.058 143.746 99.9088 141.99 100.814C140.218 101.687 139.352 103.115 139.269 103.049C139.236 103.032 139.402 102.65 139.818 102.135C140.234 101.62 140.933 100.989 141.84 100.524C142.755 100.067 143.671 99.8756 144.336 99.8507C145.002 99.8258 145.401 99.9171 145.401 99.9504Z" fill="#EB996E"/>
<path d="M197.349 85.8363C197.349 85.8363 197.332 85.9194 197.282 86.0606C197.216 86.2267 197.132 86.4344 197.032 86.692C196.791 87.2735 196.467 88.0709 196.051 89.0678C195.177 91.1363 193.962 94.0107 192.514 97.4166L192.481 97.508H192.381C189.469 97.5412 186.157 97.5828 182.654 97.616C176.513 97.6575 170.955 97.6908 166.894 97.724C164.906 97.724 163.283 97.724 162.118 97.724C161.577 97.724 161.145 97.7074 160.82 97.7074C160.521 97.7074 160.371 97.6907 160.371 97.6824C160.371 97.6741 160.529 97.6575 160.82 97.6492C161.153 97.6409 161.577 97.6243 162.118 97.6077C163.283 97.5828 164.906 97.5495 166.894 97.508C170.963 97.4582 176.513 97.3834 182.654 97.3086C186.157 97.2837 189.469 97.2505 192.381 97.2339L192.248 97.3252C193.737 93.9359 194.994 91.0782 195.892 89.0263C196.333 88.046 196.691 87.2568 196.949 86.6836C197.066 86.4344 197.166 86.2351 197.24 86.0689C197.307 85.9277 197.349 85.8612 197.357 85.8612L197.349 85.8363Z" fill="#EB996E"/>
<path d="M22.5336 114.745H18.9491V235.126H22.5336V114.745Z" fill="#455A64"/>
<path d="M169.589 115.593H166.005V235.143H169.589V115.593Z" fill="#455A64"/>
<path d="M173.135 113.558H10V120.818H173.135V113.558Z" fill="#455A64"/>
<path d="M171.563 120.827C171.563 120.918 152.528 120.993 129.047 120.993C105.567 120.993 86.5271 120.918 86.5271 120.827C86.5271 120.735 105.562 120.66 129.047 120.66C152.533 120.66 171.563 120.735 171.563 120.827Z" fill="#263238"/>
<path d="M89.6605 71.066C90.401 70.9248 91.1083 71.4149 91.2497 72.146L98.8467 112.32H135.775C136.324 112.32 136.773 112.768 136.773 113.317C136.773 113.865 136.324 114.314 135.775 114.314H96.6084V114.156L96.4336 114.189L88.5788 72.6444C88.4373 71.905 88.9282 71.1989 89.6605 71.0577V71.066Z" fill="#263238"/>
</svg>
