<svg width="136" height="20" viewBox="0 0 136 20" fill="none" xmlns="http://www.w3.org/2000/svg">
<path d="M11.7313 0.624999V3.69625H4.85375C4.57375 3.69625 4.34625 3.6525 4.17125 3.565L4.11875 3.6175C4.18875 3.7925 4.22375 4.0375 4.22375 4.3525V6.95125C4.22375 7.26625 4.18875 7.51125 4.11875 7.68625L4.17125 7.73875C4.31125 7.66875 4.53875 7.63375 4.85375 7.63375H10.9438V10.6787H4.85375C4.57375 10.6787 4.34625 10.635 4.17125 10.5475L4.11875 10.6C4.18875 10.775 4.22375 11.02 4.22375 11.335V15.2725C4.22375 15.5875 4.18875 15.8325 4.11875 16.0075L4.17125 16.06C4.34625 15.9725 4.57375 15.9287 4.85375 15.9287H11.8363V19H0.86375V0.624999H11.7313ZM13.104 19L17.199 13.435C17.4965 13.0325 17.7415 12.7875 17.934 12.7V12.6212C17.7765 12.5337 17.5403 12.2975 17.2253 11.9125L13.5765 6.8725H17.409L18.9578 9.15625C19.4653 9.89125 19.7628 10.53 19.8503 11.0725H19.9553C20.0253 10.5475 20.3228 9.90875 20.8478 9.15625L22.3703 6.8725H26.2028L22.554 11.9125C22.2565 12.2975 22.0203 12.5337 21.8453 12.6212V12.7C22.0553 12.7875 22.3003 13.0412 22.5803 13.4612L26.6753 19H22.869L20.769 16.0862C20.2965 15.4562 20.0165 14.8437 19.929 14.2487H19.824C19.7365 14.8087 19.4565 15.4212 18.984 16.0862L16.9103 19H13.104ZM31.858 0.624999V15.22C31.858 15.5175 31.823 15.7537 31.753 15.9287L31.8055 15.9812C31.9455 15.9112 32.173 15.8762 32.488 15.8762H39.4968V19H28.498V0.624999H31.858ZM46.3493 6.47875C48.2743 6.47875 49.6655 6.86375 50.523 7.63375C51.3805 8.40375 51.8093 9.64625 51.8093 11.3612V19H48.5543C48.5543 18.1775 48.6855 17.46 48.948 16.8475L48.843 16.795C47.9505 18.5275 46.5593 19.3938 44.6693 19.3938C43.3743 19.3938 42.3243 19.0088 41.5193 18.2387C40.7318 17.4512 40.338 16.4187 40.338 15.1413C40.338 13.8637 40.7318 12.8487 41.5193 12.0962C42.3243 11.3262 43.3918 10.9412 44.7218 10.9412C46.5768 10.9412 47.933 11.6412 48.7905 13.0412L48.8955 12.9887C48.7555 12.5687 48.6855 11.9737 48.6855 11.2037C48.598 9.90875 47.7055 9.26125 46.008 9.26125C45.063 9.26125 43.8643 9.43625 42.4118 9.78625L41.7818 7.0825C43.3568 6.68 44.8793 6.47875 46.3493 6.47875ZM45.9555 13.1462C45.308 13.1462 44.783 13.3212 44.3805 13.6712C43.978 14.0212 43.7768 14.4762 43.7768 15.0362C43.7768 15.5962 43.9693 16.0512 44.3543 16.4012C44.7568 16.7337 45.2818 16.9 45.9293 16.9C46.5943 16.9 47.1368 16.725 47.5568 16.375C47.9768 16.025 48.1868 15.57 48.1868 15.01C48.1868 14.4675 47.9768 14.0212 47.5568 13.6712C47.1543 13.3212 46.6205 13.1462 45.9555 13.1462ZM62.2481 19.3938C61.1981 19.3938 60.2881 19.14 59.5181 18.6325C58.7481 18.125 58.1706 17.3987 57.7856 16.4537L57.6806 16.48C57.8031 17.11 57.8644 17.95 57.8644 19H54.7406V0.231249H57.9431V6.37375C57.9431 7.75625 57.8469 8.7625 57.6544 9.3925L57.7594 9.41875C58.6169 7.45875 60.1131 6.47875 62.2481 6.47875C63.9456 6.47875 65.3194 7.0825 66.3694 8.29C67.4369 9.48 67.9706 11.0287 67.9706 12.9362C67.9706 14.8612 67.4369 16.4187 66.3694 17.6087C65.3194 18.7987 63.9456 19.3938 62.2481 19.3938ZM58.7831 15.4825C59.4306 16.13 60.2706 16.4537 61.3031 16.4537C62.3356 16.4537 63.1406 16.1387 63.7181 15.5087C64.3131 14.8787 64.6106 14.0212 64.6106 12.9362C64.6106 11.8512 64.3131 10.9937 63.7181 10.3637C63.1406 9.73375 62.3356 9.41875 61.3031 9.41875C60.2706 9.41875 59.4306 9.7425 58.7831 10.39C58.1356 11.0375 57.8119 11.8862 57.8119 12.9362C57.8119 13.9862 58.1356 14.835 58.7831 15.4825ZM89.3248 0.624999V3.74875H84.9148C84.5998 3.74875 84.3723 3.71375 84.2323 3.64375L84.1798 3.69625C84.2323 3.81875 84.2586 4.055 84.2586 4.405V19H80.8986V4.405C80.8986 4.1075 80.9336 3.87125 81.0036 3.69625L80.9511 3.64375C80.7936 3.71375 80.5661 3.74875 80.2686 3.74875H75.8323V0.624999H89.3248ZM93.671 6.47875C95.596 6.47875 96.9873 6.86375 97.8448 7.63375C98.7023 8.40375 99.131 9.64625 99.131 11.3612V19H95.876C95.876 18.1775 96.0073 17.46 96.2698 16.8475L96.1648 16.795C95.2723 18.5275 93.881 19.3938 91.991 19.3938C90.696 19.3938 89.646 19.0088 88.841 18.2387C88.0535 17.4512 87.6598 16.4187 87.6598 15.1413C87.6598 13.8637 88.0535 12.8487 88.841 12.0962C89.646 11.3262 90.7135 10.9412 92.0435 10.9412C93.8985 10.9412 95.2548 11.6412 96.1123 13.0412L96.2173 12.9887C96.0773 12.5687 96.0073 11.9737 96.0073 11.2037C95.9198 9.90875 95.0273 9.26125 93.3298 9.26125C92.3848 9.26125 91.186 9.43625 89.7335 9.78625L89.1035 7.0825C90.6785 6.68 92.201 6.47875 93.671 6.47875ZM93.2773 13.1462C92.6298 13.1462 92.1048 13.3212 91.7023 13.6712C91.2998 14.0212 91.0985 14.4762 91.0985 15.0362C91.0985 15.5962 91.291 16.0512 91.676 16.4012C92.0785 16.7337 92.6035 16.9 93.251 16.9C93.916 16.9 94.4585 16.725 94.8785 16.375C95.2985 16.025 95.5085 15.57 95.5085 15.01C95.5085 14.4675 95.2985 14.0212 94.8785 13.6712C94.476 13.3212 93.9423 13.1462 93.2773 13.1462ZM106.026 19.3938C104.154 19.3938 102.439 18.965 100.881 18.1075L102.167 15.43C103.497 16.2525 104.836 16.6637 106.184 16.6637C107.216 16.6637 107.732 16.3662 107.732 15.7712C107.732 15.5612 107.654 15.3862 107.496 15.2462C107.339 15.0887 107.067 14.9137 106.682 14.7212L104.477 13.7237C102.675 12.9537 101.774 11.7462 101.774 10.1012C101.774 8.96375 102.176 8.08 102.981 7.45C103.804 6.8025 104.95 6.47875 106.42 6.47875C107.75 6.47875 109.185 6.7675 110.725 7.345L109.649 9.97C108.406 9.4275 107.286 9.15625 106.289 9.15625C105.449 9.15625 105.029 9.41 105.029 9.9175C105.029 10.145 105.116 10.3462 105.291 10.5212C105.466 10.6787 105.781 10.8625 106.236 11.0725L108.362 12.0175C109.29 12.42 109.955 12.9012 110.357 13.4612C110.777 14.0037 110.987 14.6862 110.987 15.5087C110.987 16.7337 110.55 17.6875 109.675 18.37C108.817 19.0525 107.601 19.3938 106.026 19.3938ZM116.288 0.231249V9.55C116.288 10.6875 116.183 11.5712 115.973 12.2012L116.052 12.2275L120.672 6.8725H124.688L120.462 11.3875C119.954 11.93 119.534 12.2625 119.202 12.385V12.49C119.447 12.5775 119.814 12.8662 120.304 13.3562L125.187 19H121.013L116.052 12.91L115.973 12.9625C116.183 13.5575 116.288 14.3975 116.288 15.4825V19H113.085V0.231249H116.288ZM130.687 19.3938C128.814 19.3938 127.099 18.965 125.542 18.1075L126.828 15.43C128.158 16.2525 129.497 16.6637 130.844 16.6637C131.877 16.6637 132.393 16.3662 132.393 15.7712C132.393 15.5612 132.314 15.3862 132.157 15.2462C131.999 15.0887 131.728 14.9137 131.343 14.7212L129.138 13.7237C127.336 12.9537 126.434 11.7462 126.434 10.1012C126.434 8.96375 126.837 8.08 127.642 7.45C128.464 6.8025 129.611 6.47875 131.081 6.47875C132.411 6.47875 133.846 6.7675 135.386 7.345L134.309 9.97C133.067 9.4275 131.947 9.15625 130.949 9.15625C130.109 9.15625 129.689 9.41 129.689 9.9175C129.689 10.145 129.777 10.3462 129.952 10.5212C130.127 10.6787 130.442 10.8625 130.897 11.0725L133.023 12.0175C133.951 12.42 134.616 12.9012 135.018 13.4612C135.438 14.0037 135.648 14.6862 135.648 15.5087C135.648 16.7337 135.211 17.6875 134.336 18.37C133.478 19.0525 132.262 19.3938 130.687 19.3938Z" fill="#2F52E0"/>
</svg>
