<svg width="215" height="43" viewBox="0 0 215 43" fill="none" xmlns="http://www.w3.org/2000/svg">
<path d="M51.5483 11.1972V31.8136H64.2378V28.3677H56.1627C55.7377 28.3677 55.5555 28.4266 55.3734 28.515L55.3127 28.4561C55.3734 28.3088 55.4341 28.0143 55.4341 27.6314V23.2136C55.4341 22.8307 55.3734 22.5362 55.3127 22.3889L55.3734 22.33C55.5555 22.4184 55.7377 22.4773 56.1627 22.4773H63.2056V19.0609H56.1627C55.7377 19.0609 55.5555 19.0903 55.3734 19.1787L55.3127 19.1198C55.3734 18.9725 55.4341 18.678 55.4341 18.2951V15.3793C55.4341 14.9965 55.3734 14.7019 55.3127 14.5547L55.3734 14.4958C55.5555 14.5841 55.7377 14.643 56.1627 14.643H64.1163V11.1972H51.5483ZM70.1057 31.8136L72.504 28.5444C73.1111 27.7198 73.354 27.2485 73.4754 26.4828H73.5968C73.7183 27.2485 73.9308 27.7198 74.5683 28.5444L76.9969 31.8136H81.3987L76.6629 25.5992C76.3897 25.2163 76.1468 24.8924 75.8129 24.7451V24.6567C76.1468 24.5095 76.3594 24.215 76.6326 23.8615L80.8523 18.2067H76.4201L74.6593 20.7691C73.9915 21.6821 73.7183 22.2122 73.6272 22.9191H73.5057C73.3843 22.2122 73.1415 21.7115 72.4736 20.7691L70.6825 18.2067H66.2503L70.47 23.8615C70.7432 24.1855 70.9557 24.48 71.2897 24.6567V24.7451C70.9557 24.8924 70.7129 25.2163 70.4396 25.5698L65.7039 31.8136H70.1057ZM83.5067 11.1972V31.8136H96.2265V28.3088H88.1211C87.696 28.3088 87.5139 28.3383 87.3318 28.4266L87.271 28.3677C87.3318 28.2204 87.3925 27.9554 87.3925 27.5725V11.1972H83.5067ZM104.151 17.765C102.542 17.765 100.66 18.0006 98.869 18.4424L99.5975 21.4759C101.48 21.0341 102.664 20.8869 103.757 20.8869C105.669 20.8869 106.762 21.6526 106.853 23.0663C106.853 23.8321 106.914 24.5389 107.096 25.0691L106.974 25.128C106.003 23.5965 104.364 22.7718 102.269 22.7718C99.2029 22.7718 97.1993 24.5978 97.1993 27.4841C97.1993 30.341 99.2029 32.2554 102.208 32.2554C104.364 32.2554 106.003 31.2835 107.035 29.3396L107.157 29.3985C106.823 30.1643 106.701 30.8417 106.701 31.8136H110.466V23.243C110.466 19.3848 108.583 17.765 104.151 17.765ZM103.696 25.2458C105.214 25.2458 106.276 26.0999 106.276 27.3369C106.276 28.5739 105.214 29.4574 103.665 29.4574C102.178 29.4574 101.176 28.6328 101.176 27.3663C101.176 26.1293 102.178 25.2458 103.696 25.2458ZM122.538 32.2554C126.454 32.2554 129.156 29.3396 129.156 25.0102C129.156 20.7396 126.454 17.765 122.538 17.765C120.109 17.765 118.318 18.9136 117.347 21.0636L117.225 21.0341C117.468 20.2684 117.559 19.0019 117.559 17.6472V10.7554H113.856V31.8136H117.468C117.468 30.6355 117.408 29.7519 117.256 28.9862L117.377 28.9567C118.258 31.0773 120.109 32.2554 122.538 32.2554ZM121.445 28.9567C119.047 28.9567 117.408 27.3663 117.408 25.0102C117.408 22.654 119.047 21.0636 121.445 21.0636C123.813 21.0636 125.27 22.5656 125.27 25.0102C125.27 27.4547 123.813 28.9567 121.445 28.9567ZM138.248 11.1972V14.7019H143.378C143.773 14.7019 143.955 14.6725 144.167 14.5841L144.228 14.643C144.167 14.7903 144.107 15.0554 144.107 15.4382V31.8136H147.993V15.4382C147.993 15.0554 147.962 14.7903 147.901 14.643L147.962 14.5841C148.144 14.6725 148.326 14.7019 148.751 14.7019H153.852V11.1972H138.248ZM158.877 17.765C157.268 17.765 155.386 18.0006 153.595 18.4424L154.324 21.4759C156.206 21.0341 157.39 20.8869 158.483 20.8869C160.395 20.8869 161.488 21.6526 161.579 23.0663C161.579 23.8321 161.64 24.5389 161.822 25.0691L161.7 25.128C160.729 23.5965 159.09 22.7718 156.995 22.7718C153.929 22.7718 151.925 24.5978 151.925 27.4841C151.925 30.341 153.929 32.2554 156.934 32.2554C159.09 32.2554 160.729 31.2835 161.761 29.3396L161.883 29.3985C161.549 30.1643 161.427 30.8417 161.427 31.8136H165.192V23.243C165.192 19.3848 163.309 17.765 158.877 17.765ZM158.422 25.2458C159.94 25.2458 161.002 26.0999 161.002 27.3369C161.002 28.5739 159.94 29.4574 158.391 29.4574C156.904 29.4574 155.902 28.6328 155.902 27.3663C155.902 26.1293 156.904 25.2458 158.422 25.2458ZM173.166 32.2554C176.809 32.2554 178.904 30.665 178.904 27.8965C178.904 26.041 177.993 24.8924 175.868 23.9793L173.409 22.9191C172.347 22.4478 172.013 22.1533 172.013 21.6232C172.013 21.0341 172.468 20.7691 173.47 20.7691C174.593 20.7691 175.959 21.093 177.356 21.6821L178.6 18.7369C176.9 18.1184 175.2 17.765 173.622 17.765C170.222 17.765 168.249 19.267 168.249 21.8293C168.249 23.6554 169.25 25.0102 171.375 25.8937L173.925 27.0129C174.836 27.4252 175.14 27.7198 175.14 28.191C175.14 28.8684 174.593 29.1924 173.349 29.1924C171.831 29.1924 170.282 28.7506 168.704 27.8081L167.216 30.8122C168.916 31.7252 171.041 32.2554 173.166 32.2554ZM181.33 10.7554V31.8136H185.033V27.867C185.033 26.63 184.912 25.717 184.669 25.0396L184.76 24.9807L190.498 31.8136H195.324L189.678 25.4814C189.04 24.8629 188.737 24.6273 188.403 24.5095V24.3917C188.737 24.2739 189.131 24.0382 189.86 23.2725L194.748 18.2067H190.103L184.76 24.215L184.669 24.1855C184.912 23.4787 185.033 22.5067 185.033 21.2109V10.7554H181.33ZM201.686 32.2554C205.329 32.2554 207.423 30.665 207.423 27.8965C207.423 26.041 206.513 24.8924 204.388 23.9793L201.929 22.9191C200.866 22.4478 200.532 22.1533 200.532 21.6232C200.532 21.0341 200.988 20.7691 201.989 20.7691C203.113 20.7691 204.479 21.093 205.875 21.6821L207.12 18.7369C205.42 18.1184 203.72 17.765 202.141 17.765C198.741 17.765 196.768 19.267 196.768 21.8293C196.768 23.6554 197.77 25.0102 199.895 25.8937L202.445 27.0129C203.355 27.4252 203.659 27.7198 203.659 28.191C203.659 28.8684 203.113 29.1924 201.868 29.1924C200.35 29.1924 198.802 28.7506 197.223 27.8081L195.736 30.8122C197.436 31.7252 199.561 32.2554 201.686 32.2554Z" fill="#2F52E0"/>
<path d="M27.2673 38.974H21.7457C21.7457 38.974 24.5606 28.7137 26.4013 24.8102C28.2418 20.9068 32.2478 19.9031 35.7124 23.1372C36.0372 23.4405 40.4761 28.2675 40.4761 28.2675L37.5529 33.3977C37.5529 33.3977 34.7379 30.1634 33.0057 28.156C31.7064 26.5946 30.9485 26.7061 30.299 28.8251C29.4364 31.1166 27.2673 38.974 27.2673 38.974Z" fill="#2F52E0" stroke="#2F52E0"/>
<path d="M8.36882 14.9297L11.1024 10.0483C11.1024 10.0483 18.5144 17.4681 20.9532 20.9712C23.392 24.4744 22.2702 28.4981 17.7793 30.0066C17.3583 30.1479 11.0181 31.7524 11.0181 31.7524L8.0625 26.7024C8.0625 26.7024 12.2318 25.7683 14.8122 25.2017C16.7954 24.8036 17.0749 24.08 15.5779 22.4872C14.0384 20.6236 8.36882 14.9297 8.36882 14.9297Z" fill="#2F52E0" stroke="#2F52E0"/>
<path d="M38.0663 10.1207L40.9566 14.9109C40.9566 14.9109 30.8419 17.6827 26.591 18.0694C22.3401 18.4563 19.3979 15.491 20.3083 10.8418C20.3936 10.406 22.1354 4.10213 22.1354 4.10213L27.9862 4.03125C27.9862 4.03125 26.7357 8.11684 25.9517 10.6398C25.317 12.5603 25.8076 13.1611 27.9322 12.6479C30.3134 12.2318 38.0663 10.1207 38.0663 10.1207Z" fill="#2F52E0" stroke="#2F52E0"/>
</svg>
