<svg width="40" height="41" viewBox="0 0 40 41" fill="none" xmlns="http://www.w3.org/2000/svg">
<path d="M24.8462 39.375H19.4529C19.4529 39.375 22.2024 29.3532 24.0002 25.5406C25.7979 21.7279 29.7107 20.7475 33.0947 23.9066C33.412 24.2028 37.7477 28.9175 37.7477 28.9175L34.8925 33.9284C34.8925 33.9284 32.143 30.7693 30.4509 28.8085C29.1819 27.2835 28.4417 27.3924 27.8072 29.4621C26.9648 31.7003 24.8462 39.375 24.8462 39.375Z" fill="#2F52E0" stroke="#2F52E0" stroke-width="1.3125"/>
<path d="M6.38712 15.8899L9.05714 11.122C9.05714 11.122 16.2968 18.3692 18.6789 21.7908C21.0609 25.2125 19.9652 29.1427 15.5788 30.6161C15.1675 30.7542 8.9748 32.3213 8.9748 32.3213L6.08792 27.3888C6.08792 27.3888 10.1602 26.4764 12.6807 25.923C14.6177 25.5341 14.8907 24.8273 13.4286 23.2717C11.9248 21.4513 6.38712 15.8899 6.38712 15.8899Z" fill="#FF381C" stroke="#FF381C" stroke-width="1.3125"/>
<path d="M35.3939 11.1926L38.217 15.8715C38.217 15.8715 28.3375 18.5787 24.1854 18.9565C20.0334 19.3343 17.1596 16.438 18.0489 11.8969C18.1322 11.4712 19.8334 5.31397 19.8334 5.31397L25.5482 5.24475C25.5482 5.24475 24.3268 9.23532 23.5611 11.6996C22.941 13.5754 23.4202 14.1623 25.4954 13.661C27.8213 13.2545 35.3939 11.1926 35.3939 11.1926Z" fill="#FF381C" stroke="#FF381C" stroke-width="1.3125"/>
</svg>
