<svg width="185" height="41" viewBox="0 0 185 41" fill="none" xmlns="http://www.w3.org/2000/svg">
<path d="M59.7313 12.625V15.6962H52.8538C52.5738 15.6962 52.3463 15.6525 52.1713 15.565L52.1188 15.6175C52.1888 15.7925 52.2238 16.0375 52.2238 16.3525V18.9512C52.2238 19.2662 52.1888 19.5112 52.1188 19.6862L52.1713 19.7387C52.3113 19.6687 52.5388 19.6337 52.8538 19.6337H58.9438V22.6787H52.8538C52.5738 22.6787 52.3463 22.635 52.1713 22.5475L52.1188 22.6C52.1888 22.775 52.2238 23.02 52.2238 23.335V27.2725C52.2238 27.5875 52.1888 27.8325 52.1188 28.0075L52.1713 28.06C52.3463 27.9725 52.5738 27.9287 52.8538 27.9287H59.8363V31H48.8638V12.625H59.7313ZM61.104 31L65.199 25.435C65.4965 25.0325 65.7415 24.7875 65.934 24.7V24.6212C65.7765 24.5337 65.5403 24.2975 65.2253 23.9125L61.5765 18.8725H65.409L66.9578 21.1562C67.4653 21.8912 67.7628 22.53 67.8503 23.0725H67.9553C68.0253 22.5475 68.3228 21.9087 68.8478 21.1562L70.3703 18.8725H74.2028L70.554 23.9125C70.2565 24.2975 70.0203 24.5337 69.8453 24.6212V24.7C70.0553 24.7875 70.3003 25.0412 70.5803 25.4612L74.6753 31H70.869L68.769 28.0862C68.2965 27.4562 68.0165 26.8437 67.929 26.2487H67.824C67.7365 26.8087 67.4565 27.4212 66.984 28.0862L64.9103 31H61.104ZM79.858 12.625V27.22C79.858 27.5175 79.823 27.7537 79.753 27.9287L79.8055 27.9812C79.9455 27.9112 80.173 27.8762 80.488 27.8762H87.4968V31H76.498V12.625H79.858ZM94.3493 18.4787C96.2743 18.4787 97.6655 18.8637 98.523 19.6337C99.3805 20.4037 99.8093 21.6462 99.8093 23.3612V31H96.5543C96.5543 30.1775 96.6855 29.46 96.948 28.8475L96.843 28.795C95.9505 30.5275 94.5593 31.3938 92.6693 31.3938C91.3743 31.3938 90.3243 31.0088 89.5193 30.2387C88.7318 29.4512 88.338 28.4187 88.338 27.1413C88.338 25.8637 88.7318 24.8487 89.5193 24.0962C90.3243 23.3262 91.3918 22.9412 92.7218 22.9412C94.5768 22.9412 95.933 23.6412 96.7905 25.0412L96.8955 24.9887C96.7555 24.5687 96.6855 23.9737 96.6855 23.2037C96.598 21.9087 95.7055 21.2612 94.008 21.2612C93.063 21.2612 91.8643 21.4362 90.4118 21.7862L89.7818 19.0825C91.3568 18.68 92.8793 18.4787 94.3493 18.4787ZM93.9555 25.1462C93.308 25.1462 92.783 25.3212 92.3805 25.6712C91.978 26.0212 91.7768 26.4762 91.7768 27.0362C91.7768 27.5962 91.9693 28.0512 92.3543 28.4012C92.7568 28.7337 93.2818 28.9 93.9293 28.9C94.5943 28.9 95.1368 28.725 95.5568 28.375C95.9768 28.025 96.1868 27.57 96.1868 27.01C96.1868 26.4675 95.9768 26.0212 95.5568 25.6712C95.1543 25.3212 94.6205 25.1462 93.9555 25.1462ZM110.248 31.3938C109.198 31.3938 108.288 31.14 107.518 30.6325C106.748 30.125 106.171 29.3987 105.786 28.4537L105.681 28.48C105.803 29.11 105.864 29.95 105.864 31H102.741V12.2312H105.943V18.3737C105.943 19.7562 105.847 20.7625 105.654 21.3925L105.759 21.4187C106.617 19.4587 108.113 18.4787 110.248 18.4787C111.946 18.4787 113.319 19.0825 114.369 20.29C115.437 21.48 115.971 23.0287 115.971 24.9362C115.971 26.8612 115.437 28.4187 114.369 29.6087C113.319 30.7987 111.946 31.3938 110.248 31.3938ZM106.783 27.4825C107.431 28.13 108.271 28.4537 109.303 28.4537C110.336 28.4537 111.141 28.1387 111.718 27.5087C112.313 26.8787 112.611 26.0212 112.611 24.9362C112.611 23.8512 112.313 22.9937 111.718 22.3637C111.141 21.7337 110.336 21.4187 109.303 21.4187C108.271 21.4187 107.431 21.7425 106.783 22.39C106.136 23.0375 105.812 23.8862 105.812 24.9362C105.812 25.9862 106.136 26.835 106.783 27.4825ZM137.325 12.625V15.7487H132.915C132.6 15.7487 132.372 15.7137 132.232 15.6437L132.18 15.6962C132.232 15.8187 132.259 16.055 132.259 16.405V31H128.899V16.405C128.899 16.1075 128.934 15.8712 129.004 15.6962L128.951 15.6437C128.794 15.7137 128.566 15.7487 128.269 15.7487H123.832V12.625H137.325ZM141.671 18.4787C143.596 18.4787 144.987 18.8637 145.845 19.6337C146.702 20.4037 147.131 21.6462 147.131 23.3612V31H143.876C143.876 30.1775 144.007 29.46 144.27 28.8475L144.165 28.795C143.272 30.5275 141.881 31.3938 139.991 31.3938C138.696 31.3938 137.646 31.0088 136.841 30.2387C136.054 29.4512 135.66 28.4187 135.66 27.1413C135.66 25.8637 136.054 24.8487 136.841 24.0962C137.646 23.3262 138.714 22.9412 140.044 22.9412C141.899 22.9412 143.255 23.6412 144.112 25.0412L144.217 24.9887C144.077 24.5687 144.007 23.9737 144.007 23.2037C143.92 21.9087 143.027 21.2612 141.33 21.2612C140.385 21.2612 139.186 21.4362 137.734 21.7862L137.104 19.0825C138.679 18.68 140.201 18.4787 141.671 18.4787ZM141.277 25.1462C140.63 25.1462 140.105 25.3212 139.702 25.6712C139.3 26.0212 139.099 26.4762 139.099 27.0362C139.099 27.5962 139.291 28.0512 139.676 28.4012C140.079 28.7337 140.604 28.9 141.251 28.9C141.916 28.9 142.459 28.725 142.879 28.375C143.299 28.025 143.509 27.57 143.509 27.01C143.509 26.4675 143.299 26.0212 142.879 25.6712C142.476 25.3212 141.942 25.1462 141.277 25.1462ZM154.026 31.3938C152.154 31.3938 150.439 30.965 148.881 30.1075L150.167 27.43C151.497 28.2525 152.836 28.6637 154.184 28.6637C155.216 28.6637 155.732 28.3662 155.732 27.7712C155.732 27.5612 155.654 27.3862 155.496 27.2462C155.339 27.0887 155.067 26.9137 154.682 26.7212L152.477 25.7237C150.675 24.9537 149.774 23.7462 149.774 22.1012C149.774 20.9637 150.176 20.08 150.981 19.45C151.804 18.8025 152.95 18.4787 154.42 18.4787C155.75 18.4787 157.185 18.7675 158.725 19.345L157.649 21.97C156.406 21.4275 155.286 21.1562 154.289 21.1562C153.449 21.1562 153.029 21.41 153.029 21.9175C153.029 22.145 153.116 22.3462 153.291 22.5212C153.466 22.6787 153.781 22.8625 154.236 23.0725L156.362 24.0175C157.29 24.42 157.955 24.9012 158.357 25.4612C158.777 26.0037 158.987 26.6862 158.987 27.5087C158.987 28.7337 158.55 29.6875 157.675 30.37C156.817 31.0525 155.601 31.3938 154.026 31.3938ZM164.288 12.2312V21.55C164.288 22.6875 164.183 23.5712 163.973 24.2012L164.052 24.2275L168.672 18.8725H172.688L168.462 23.3875C167.954 23.93 167.534 24.2625 167.202 24.385V24.49C167.447 24.5775 167.814 24.8662 168.304 25.3562L173.187 31H169.013L164.052 24.91L163.973 24.9625C164.183 25.5575 164.288 26.3975 164.288 27.4825V31H161.085V12.2312H164.288ZM178.687 31.3938C176.814 31.3938 175.099 30.965 173.542 30.1075L174.828 27.43C176.158 28.2525 177.497 28.6637 178.844 28.6637C179.877 28.6637 180.393 28.3662 180.393 27.7712C180.393 27.5612 180.314 27.3862 180.157 27.2462C179.999 27.0887 179.728 26.9137 179.343 26.7212L177.138 25.7237C175.336 24.9537 174.434 23.7462 174.434 22.1012C174.434 20.9637 174.837 20.08 175.642 19.45C176.464 18.8025 177.611 18.4787 179.081 18.4787C180.411 18.4787 181.846 18.7675 183.386 19.345L182.309 21.97C181.067 21.4275 179.947 21.1562 178.949 21.1562C178.109 21.1562 177.689 21.41 177.689 21.9175C177.689 22.145 177.777 22.3462 177.952 22.5212C178.127 22.6787 178.442 22.8625 178.897 23.0725L181.023 24.0175C181.951 24.42 182.616 24.9012 183.018 25.4612C183.438 26.0037 183.648 26.6862 183.648 27.5087C183.648 28.7337 183.211 29.6875 182.336 30.37C181.478 31.0525 180.262 31.3938 178.687 31.3938Z" fill="#2F52E0"/>
<path d="M24.8462 39.375H19.4529C19.4529 39.375 22.2025 29.3532 24.0002 25.5406C25.798 21.7279 29.7107 20.7475 33.0948 23.9066C33.412 24.2028 37.7478 28.9175 37.7478 28.9175L34.8925 33.9284C34.8925 33.9284 32.143 30.7693 30.451 28.8085C29.182 27.2835 28.4417 27.3924 27.8072 29.4621C26.9649 31.7003 24.8462 39.375 24.8462 39.375Z" fill="#2F52E0" stroke="#2F52E0" stroke-width="1.3125"/>
<path d="M6.38712 15.8899L9.05714 11.122C9.05714 11.122 16.2968 18.3692 18.6789 21.7908C21.0609 25.2125 19.9652 29.1427 15.5788 30.6161C15.1675 30.7542 8.9748 32.3213 8.9748 32.3213L6.08792 27.3888C6.08792 27.3888 10.1602 26.4764 12.6807 25.923C14.6177 25.5341 14.8907 24.8273 13.4286 23.2717C11.9248 21.4513 6.38712 15.8899 6.38712 15.8899Z" fill="#2F52E0" stroke="#2F52E0" stroke-width="1.3125"/>
<path d="M35.3939 11.1926L38.217 15.8715C38.217 15.8715 28.3375 18.5787 24.1854 18.9565C20.0334 19.3343 17.1596 16.438 18.0489 11.8969C18.1322 11.4712 19.8334 5.31397 19.8334 5.31397L25.5482 5.24475C25.5482 5.24475 24.3268 9.23532 23.5611 11.6996C22.941 13.5754 23.4202 14.1623 25.4954 13.661C27.8213 13.2545 35.3939 11.1926 35.3939 11.1926Z" fill="#2F52E0" stroke="#2F52E0" stroke-width="1.3125"/>
</svg>
