<svg width="16" height="16" viewBox="0 0 16 16" fill="none" xmlns="http://www.w3.org/2000/svg">
<path d="M15.2844 14.2156C15.4252 14.3578 15.5042 14.5499 15.5042 14.75C15.5042 14.9501 15.4252 15.1422 15.2844 15.2844C15.141 15.423 14.9494 15.5005 14.75 15.5005C14.5506 15.5005 14.359 15.423 14.2156 15.2844L8.00001 9.05938L1.78438 15.2844C1.64103 15.423 1.44942 15.5005 1.25001 15.5005C1.0506 15.5005 0.858988 15.423 0.715632 15.2844C0.574796 15.1422 0.495789 14.9501 0.495789 14.75C0.495789 14.5499 0.574796 14.3578 0.715632 14.2156L6.94063 8L0.715632 1.78438C0.596035 1.63866 0.534916 1.45366 0.544164 1.26537C0.553411 1.07708 0.632364 0.898961 0.765665 0.76566C0.898966 0.632359 1.07708 0.553406 1.26537 0.544158C1.45366 0.534911 1.63866 0.59603 1.78438 0.715627L8.00001 6.94063L14.2156 0.715627C14.3614 0.59603 14.5464 0.534911 14.7346 0.544158C14.9229 0.553406 15.101 0.632359 15.2344 0.76566C15.3677 0.898961 15.4466 1.07708 15.4559 1.26537C15.4651 1.45366 15.404 1.63866 15.2844 1.78438L9.05938 8L15.2844 14.2156Z" fill="#1C1C1C"/>
</svg>
