<svg width="24" height="15" viewBox="0 0 24 15" fill="none" xmlns="http://www.w3.org/2000/svg">
<path d="M23.1844 7.2C23.1563 7.125 22.3594 5.3625 20.5969 3.59063C18.2438 1.24688 15.2719 0 12.0001 0C8.72818 0 5.7563 1.24688 3.40318 3.59063C1.64068 5.3625 0.843802 7.125 0.815677 7.2C0.773821 7.29448 0.752197 7.39667 0.752197 7.5C0.752197 7.60333 0.773821 7.70552 0.815677 7.8C0.843802 7.875 1.64068 9.6375 3.40318 11.4094C5.7563 13.7531 8.72818 15 12.0001 15C15.2719 15 18.2438 13.7531 20.5969 11.4094C22.3594 9.6375 23.1563 7.875 23.1844 7.8C23.2263 7.70552 23.2479 7.60333 23.2479 7.5C23.2479 7.39667 23.2263 7.29448 23.1844 7.2ZM12.0001 13.5C9.11255 13.5 6.59068 12.45 4.50943 10.3781C3.6493 9.53103 2.91949 8.56111 2.3438 7.5C2.91871 6.43557 3.64855 5.46245 4.50943 4.6125C6.59068 2.55 9.11255 1.5 12.0001 1.5C14.8876 1.5 17.4094 2.55 19.4907 4.6125C20.3515 5.46245 21.0814 6.43557 21.6563 7.5C20.9813 8.76562 18.0376 13.5 12.0001 13.5ZM12.0001 3C11.11 3 10.24 3.26392 9.49999 3.75839C8.75996 4.25285 8.18319 4.95566 7.84259 5.77792C7.502 6.60019 7.41288 7.50499 7.58652 8.37791C7.76015 9.25082 8.18874 10.0526 8.81807 10.682C9.44741 11.3113 10.2492 11.7399 11.1221 11.9135C11.9951 12.0872 12.8999 11.9981 13.7221 11.6575C14.5444 11.3169 15.2472 10.7401 15.7417 10.0001C16.2361 9.26005 16.5001 8.39002 16.5001 7.5C16.5001 6.30653 16.0259 5.16193 15.182 4.31802C14.3381 3.47411 13.1935 3 12.0001 3ZM12.0001 10.5C11.4067 10.5 10.8267 10.3241 10.3333 9.99441C9.83999 9.66476 9.45548 9.19623 9.22841 8.64805C9.00135 8.09987 8.94194 7.49667 9.0577 6.91473C9.17345 6.33279 9.45917 5.79824 9.87873 5.37868C10.2983 4.95912 10.8328 4.6734 11.4148 4.55764C11.9967 4.44189 12.5999 4.5013 13.1481 4.72836C13.6963 4.95542 14.1648 5.33994 14.4945 5.83329C14.8241 6.32664 15.0001 6.90666 15.0001 7.5C14.9976 8.29489 14.6807 9.05651 14.1186 9.61859C13.5566 10.1807 12.7949 10.4975 12.0001 10.5Z" fill="#1C1C1C"/>
</svg>
