<svg width="21" height="10" viewBox="0 0 21 10" fill="none" xmlns="http://www.w3.org/2000/svg">
<path d="M20.1469 6.2625C20.2457 6.4342 20.2726 6.63804 20.2217 6.8295C20.1707 7.02096 20.0461 7.18449 19.875 7.28437C19.762 7.35286 19.6322 7.38857 19.5 7.3875C19.3672 7.38869 19.2365 7.3546 19.1212 7.28871C19.0059 7.22283 18.9102 7.12751 18.8438 7.0125L17.1188 4.03125C16.1066 4.7121 14.9927 5.2279 13.8188 5.55937L14.3625 8.64375C14.3954 8.83993 14.3499 9.04117 14.236 9.20421C14.122 9.36725 13.9487 9.47906 13.7531 9.51562H13.6219C13.4454 9.51614 13.2743 9.45438 13.1388 9.3412C13.0034 9.22802 12.9122 9.07068 12.8813 8.89687L12.3469 5.85937C11.7354 5.95054 11.1182 5.99754 10.5 6C9.87894 6.00029 9.25863 5.95643 8.64377 5.86875L8.10939 8.90625C8.0785 9.08005 7.98729 9.23739 7.85182 9.35057C7.71635 9.46375 7.5453 9.52552 7.36877 9.525H7.23752C7.04199 9.48844 6.86862 9.37662 6.75467 9.21358C6.64072 9.05055 6.59529 8.84931 6.62814 8.65312L7.18127 5.55937C6.0036 5.23004 4.88631 4.71412 3.87189 4.03125L2.13752 7.03125C2.07052 7.14364 1.97595 7.23707 1.86275 7.30269C1.74955 7.36832 1.62147 7.40396 1.49064 7.40625C1.35922 7.40579 1.23022 7.3708 1.11657 7.30478C1.00292 7.23877 0.90862 7.14404 0.843106 7.03011C0.777593 6.91617 0.74317 6.78702 0.743286 6.65559C0.743403 6.52416 0.778055 6.39507 0.84377 6.28125L2.67189 3.1125C2.03306 2.56463 1.4462 1.95893 0.91877 1.30313C0.856439 1.22713 0.80986 1.13948 0.781745 1.0453C0.753631 0.951119 0.744545 0.852283 0.755016 0.754553C0.765487 0.656824 0.795306 0.562156 0.842735 0.476068C0.890164 0.389979 0.954254 0.314192 1.03127 0.253125C1.10668 0.190268 1.19384 0.143033 1.28768 0.114165C1.38151 0.0852964 1.48015 0.0753714 1.57785 0.0849673C1.67555 0.0945632 1.77037 0.123488 1.8568 0.170061C1.94322 0.216633 2.01953 0.279923 2.08127 0.35625C2.66811 1.08788 3.33826 1.74859 4.07814 2.325H4.08752C5.91822 3.75306 8.17828 4.51963 10.5 4.5C13.2469 4.5 15.3563 3.53437 16.9031 2.33437H16.9219C17.6618 1.75797 18.3319 1.09726 18.9188 0.365625C18.9798 0.288609 19.0556 0.224518 19.1417 0.177089C19.2278 0.12966 19.3225 0.0998415 19.4202 0.0893704C19.5179 0.0788994 19.6168 0.0879859 19.7109 0.1161C19.8051 0.144215 19.8928 0.190794 19.9688 0.253125C20.0458 0.314192 20.1099 0.389979 20.1573 0.476068C20.2047 0.562156 20.2346 0.656824 20.245 0.754553C20.2555 0.852283 20.2464 0.951119 20.2183 1.0453C20.1902 1.13948 20.1436 1.22713 20.0813 1.30313C19.5538 1.95893 18.967 2.56463 18.3281 3.1125L20.1469 6.2625Z" fill="#1C1C1C"/>
</svg>
